<svg width="174" height="40" viewBox="0 0 174 40" fill="none" xmlns="http://www.w3.org/2000/svg">
<path fill-rule="evenodd" clip-rule="evenodd" d="M28.3688 35.939C25.8723 37.9797 22.3546 39 17.8156 39H0V4.0814C0 2.94767 0.397163 1.98401 1.19149 1.19041C1.98582 0.396802 2.95035 0 4.08511 0H18.383C22.3924 0 25.4563 0.831395 27.5745 2.49419C29.6927 4.30814 30.7518 6.76454 30.7518 9.86337C30.7518 11.8285 30.3357 13.4913 29.5035 14.8517C28.6714 16.1366 27.4988 17.157 25.9858 17.9128C27.9527 18.7442 29.4657 19.9157 30.5248 21.4273C31.5083 22.8634 32 24.7529 32 27.0959C32 30.875 30.7896 33.8227 28.3688 35.939ZM7.80853 15.303H17.1099C19.1003 15.303 20.5548 14.9579 21.4735 14.2675C22.3921 13.5771 22.8515 12.5032 22.8515 11.0457C22.8515 9.58829 22.3921 8.51438 21.4735 7.824C20.7079 7.21034 19.2151 6.90351 16.9951 6.90351H7.80853V15.303ZM17.4544 32.4475H7.80853V22.0919H17.3395C19.7127 22.0919 21.3969 22.4754 22.3921 23.2425C23.4639 24.0863 23.9998 25.4287 23.9998 27.2697C23.9998 29.1107 23.4639 30.4147 22.3921 31.1818C21.2438 32.0256 19.5979 32.4475 17.4544 32.4475ZM43.6118 3.74128V39H35.6917V0H39.7649C40.8209 0 41.7261 0.359012 42.4804 1.07703C43.2347 1.79506 43.6118 2.68314 43.6118 3.74128ZM56.0593 40C57.4306 40 59.0113 39.9046 60.8014 39.7138C62.5916 39.5229 64.2866 39.0077 65.8864 38.1681C67.4099 37.4047 68.724 36.1644 69.8286 34.4469C70.9332 32.7294 71.4855 30.3441 71.4855 27.2908V16.8716C71.4855 14.1237 70.3809 11.9864 68.1717 10.4598C66.0387 9.00947 62.8392 8.28432 58.5732 8.28432C54.7643 8.28432 51.8314 9.16213 49.7746 10.9178C47.9463 12.4444 46.8799 14.3908 46.5751 16.7571H54.2311C54.612 15.9175 55.2214 15.345 56.0593 15.0396C56.8973 14.7343 57.8495 14.5817 58.916 14.5817C59.9063 14.5817 60.9919 14.7534 62.1727 15.0969C63.3534 15.4404 63.9438 16.1846 63.9438 17.3296C63.9438 18.8562 62.2679 19.8485 58.916 20.3065C58.2304 20.3828 57.621 20.4783 57.0877 20.5928C56.5545 20.7073 56.0974 20.7645 55.7165 20.7645C52.8218 21.2225 50.4412 22.1385 48.5748 23.5124C46.7085 24.8864 45.7753 27.1763 45.7753 30.3823C45.7753 33.8172 46.8037 36.2789 48.8605 37.7673C50.9173 39.2558 53.3169 40 56.0593 40ZM54.2732 33.0229C54.9622 33.6366 55.9574 33.9434 57.2588 33.9434C59.4024 33.9434 61.0865 33.3297 62.3114 32.1024C63.5363 30.8751 64.1487 29.1875 64.1487 27.0397V24.1631C63.077 24.7001 61.5842 25.1987 59.6703 25.6589L57.0292 26.2342C55.6512 26.6178 54.656 27.1164 54.0435 27.7301C53.5077 28.5738 53.2397 29.4176 53.2397 30.2614C53.2397 31.412 53.5842 32.3325 54.2732 33.0229ZM82.0061 39V19.8027C82.0061 17.9959 82.532 16.6784 83.5839 15.8503C84.6357 15.0222 85.8379 14.6081 87.1902 14.6081C88.5426 14.6081 89.7635 15.0222 90.853 15.8503C91.9424 16.6784 92.4871 17.9959 92.4871 19.8027V35.1605C92.4871 36.2898 92.844 37.212 93.5577 37.9272C94.2715 38.6424 95.1919 39 96.3189 39H100.263V21.3837C100.263 16.1138 98.8734 12.6131 96.0935 10.8816C93.3136 9.15008 90.2707 8.28432 86.9649 8.28432C83.7341 8.43489 80.7852 9.37593 78.118 11.1075C75.4508 12.839 74.1172 16.2644 74.1172 21.3837V39H82.0061ZM111.298 27.5494V39H103.378V0H107.452C108.508 0 109.413 0.377907 110.167 1.13372C110.921 1.88953 111.298 2.75872 111.298 3.74128V19.9535L120.916 8.84302H130.42L119.671 20.407L130.533 39H121.029L115.485 28.7965C114.353 26.7558 113.373 25.8866 112.543 26.189C111.713 26.4913 111.298 26.9448 111.298 27.5494Z" fill="black"/>
<path d="M151.7 33.9992C155.046 33.8806 158.392 33.7802 161.736 33.6068C163.178 33.5307 164.613 33.4273 166.051 33.3132C167.941 33.1596 169.823 32.7914 171.717 32.9983C172.31 32.9177 172.758 32.545 173.065 31.8833C173.495 31.0102 173.768 30.064 173.883 29.0418C174.039 27.8218 174.039 26.6003 173.883 25.3803C173.775 24.8525 173.667 24.3216 173.56 23.7923C173.352 22.9526 172.979 22.2604 172.439 21.7159C170.512 20.6921 168.435 20.1612 166.346 20.0821C165.076 20.038 163.811 20 162.541 20C162.348 20 162.156 20 161.963 20.0015C158.541 20.0319 155.121 20.178 151.7 20.3058C151.001 20.4031 150.471 20.8458 150.105 21.6276C149.237 23.1351 149 25.3514 149 27.1525C148.991 28.5398 149.163 29.8891 149.522 31.1988C149.855 32.2971 150.545 34.0418 151.7 33.9992Z" fill="#3C94FF"/>
<path fill-rule="evenodd" clip-rule="evenodd" d="M146 23H164C165.591 23 167 24.3431 167 26V36C167 37.6569 165.591 39 164 39H146C144.409 39 143 37.6569 143 36V26C143 24.3431 144.409 23 146 23ZM146 25C145.47 25 145 25.4477 145 26V36C145 36.5523 145.47 37 146 37H164C164.53 37 165 36.5523 165 36V26C165 25.4477 164.53 25 164 25H146Z" fill="black"/>
</svg>
